<?xml version="1.0" standalone="no"?>
<!DOCTYPE svg PUBLIC "-//W3C//DTD SVG 20010904//EN"
 "http://www.w3.org/TR/2001/REC-SVG-20010904/DTD/svg10.dtd">
<svg version="1.0" xmlns="http://www.w3.org/2000/svg"
 width="200.000000pt" height="200.000000pt" viewBox="0 0 200.000000 200.000000"
 preserveAspectRatio="xMidYMid meet">
<metadata>
Created by potrace 1.14, written by Peter Selinger 2001-2017
</metadata>
<g transform="translate(0.000000,200.000000) scale(0.100000,-0.100000)"
fill="#000000" stroke="none">
<path d="M598 1995 c-1 -2 -28 -6 -58 -9 -30 -3 -66 -8 -80 -11 -14 -2 -35 -7
-47 -9 -43 -9 -118 -47 -172 -88 -135 -102 -207 -229 -228 -404 -10 -85 -10
-880 0 -951 23 -157 64 -241 166 -343 103 -102 166 -134 331 -166 51 -10 866
-14 930 -4 30 4 75 11 99 15 73 11 147 43 212 93 85 64 80 59 132 130 49 66
80 138 92 212 4 25 10 54 13 65 3 11 6 216 7 455 3 538 -7 614 -95 747 -98
150 -229 232 -410 259 -46 7 -885 15 -892 9z"/>
</g>
</svg>
