<svg width="24" height="24" viewBox="0 0 24 24" fill="none" xmlns="http://www.w3.org/2000/svg">
<path fill-rule="evenodd" clip-rule="evenodd" d="M6.3431 8.00736C6.05021 7.71448 6.05021 7.23958 6.3431 6.9467C6.63598 6.65382 7.11087 6.65382 7.40376 6.9467L11.6464 11.1893L16.2426 6.59315C16.5355 6.30026 17.0104 6.30026 17.3033 6.59315C17.5961 6.88603 17.5961 7.36092 17.3033 7.65381L12.7071 12.25L17.3033 16.8462C17.5961 17.1391 17.5961 17.614 17.3033 17.9069C17.0104 18.1997 16.5355 18.1997 16.2426 17.9069L11.6464 13.3107L7.40376 17.5533C7.11087 17.8462 6.63598 17.8462 6.3431 17.5533C6.05021 17.2604 6.05021 16.7855 6.3431 16.4926L10.5857 12.25L6.3431 8.00736Z" fill="#393D3F"/>
</svg>
