<svg width="218" height="75" viewBox="0 0 218 75" fill="none" xmlns="http://www.w3.org/2000/svg">
<path d="M84 24C84 21.2386 86.2386 19 89 19H98V75H84V24Z" fill="#393D3F"/>
<path fill-rule="evenodd" clip-rule="evenodd" d="M149 0C146.239 0 144 2.23858 144 5V22.6004C140.012 20.3081 135.406 19 130.5 19C115.312 19 103 31.536 103 47C103 62.464 115.312 75 130.5 75C135.406 75 140.012 73.6919 144 71.3996V75H158V47V0H149ZM144 47C144 39.0291 137.719 33 130.5 33C123.281 33 117 39.0291 117 47C117 54.9709 123.281 61 130.5 61C137.719 61 144 54.9709 144 47Z" fill="#393D3F"/>
<path fill-rule="evenodd" clip-rule="evenodd" d="M204 47C204 54.9709 197.719 61 190.5 61C183.281 61 177 54.9709 177 47C177 39.0291 183.281 33 190.5 33C197.719 33 204 39.0291 204 47ZM204 22.6004C200.012 20.3081 195.406 19 190.5 19C175.312 19 163 31.536 163 47C163 62.464 175.312 75 190.5 75C195.414 75 200.026 73.6878 204.019 71.3888C204.214 73.4155 205.922 75 208 75H218V47V19H206C204.895 19 204 19.8954 204 21V22.6004Z" fill="#393D3F"/>
<path d="M84 14C84 6.26801 86.7157 0 95 0H101C101 7.73199 98.2843 14 90 14H84Z" fill="#393D3F"/>
<path fill-rule="evenodd" clip-rule="evenodd" d="M79 0H65H63H61C53.7524 0 47.235 4.4125 44.5433 11.1417L29.4 49H12C5.37257 49 0 54.3726 0 61H24.6L19 75H33L38.6 61H65V75H79V0ZM65 14C60.4099 14 56.2822 16.7946 54.5774 21.0564L43.4 49H65V14Z" fill="#393D3F"/>
</svg>
