<svg width="198" height="48" viewBox="0 0 198 48" fill="none" xmlns="http://www.w3.org/2000/svg">
<g clip-path="url(#clip0_69_959)">
<rect width="48" height="48" rx="14.4" fill="#CAF906"/>
<path fill-rule="evenodd" clip-rule="evenodd" d="M57.9411 -43.8823L-43.8823 57.941L-39.2154 62.608L62.608 -39.2154L57.9411 -43.8823ZM67.6992 -34.1243L-34.1242 67.6991L-29.4573 72.366L72.3661 -29.4574L67.6992 -34.1243ZM-24.3661 77.4572L77.4573 -24.3662L82.1242 -19.6993L-19.6992 82.1241L-24.3661 77.4572ZM87.2153 -14.6082L-14.608 87.2152L-9.94113 91.8821L91.8822 -9.94125L87.2153 -14.6082Z" fill="url(#paint0_linear_69_959)"/>
<rect x="-4.86575" y="11.9904" width="70.5375" height="26.9596" transform="rotate(26.2744 -4.86575 11.9904)" fill="url(#paint1_linear_69_959)" fill-opacity="0.5"/>
</g>
<path d="M111.76 15.36C111.76 13.5927 113.193 12.16 114.96 12.16H120.72V48H111.76V15.36Z" fill="#393D3F"/>
<path fill-rule="evenodd" clip-rule="evenodd" d="M153.36 0C151.593 0 150.16 1.43269 150.16 3.2V14.4643C147.608 12.9972 144.66 12.16 141.52 12.16C131.8 12.16 123.92 20.1831 123.92 30.08C123.92 39.9769 131.8 48 141.52 48C144.66 48 147.608 47.1628 150.16 45.6957V48H159.12V30.08V0H153.36ZM150.16 30.08C150.16 24.9786 146.14 21.12 141.52 21.12C136.9 21.12 132.88 24.9786 132.88 30.08C132.88 35.1814 136.9 39.04 141.52 39.04C146.14 39.04 150.16 35.1814 150.16 30.08Z" fill="#393D3F"/>
<path fill-rule="evenodd" clip-rule="evenodd" d="M189.84 12.16C189.133 12.16 188.56 12.7331 188.56 13.44V14.4643C186.008 12.9972 183.06 12.1601 179.92 12.1601C170.2 12.1601 162.32 20.1831 162.32 30.0801C162.32 39.977 170.2 48.0001 179.92 48.0001C183.065 48.0001 186.017 47.1603 188.572 45.6889C188.697 46.986 189.79 48 191.12 48H197.52V30.1007C197.52 30.0938 197.52 30.087 197.52 30.0801C197.52 30.0732 197.52 30.0663 197.52 30.0594V12.16H189.84ZM188.56 30.0665V30.0937C188.553 35.1883 184.536 39.0401 179.92 39.0401C175.3 39.0401 171.28 35.1814 171.28 30.0801C171.28 24.9787 175.3 21.1201 179.92 21.1201C184.536 21.1201 188.553 24.9718 188.56 30.0665Z" fill="#393D3F"/>
<path d="M111.76 8.96C111.76 4.01153 113.498 0 118.8 0H122.64C122.64 4.94847 120.902 8.96 115.6 8.96H111.76Z" fill="#393D3F"/>
<path fill-rule="evenodd" clip-rule="evenodd" d="M108.56 0H99.6H98.32H97.04C92.4015 0 88.2304 2.824 86.5077 7.1307L76.816 31.36H65.68C61.4384 31.36 58 34.7985 58 39.04H73.744L70.16 48H79.12L82.704 39.04H99.6V48H108.56V0ZM99.6 8.96C96.6623 8.96 94.0206 10.7485 92.9296 13.4761L85.776 31.36H99.6V8.96Z" fill="#393D3F"/>
<defs>
<linearGradient id="paint0_linear_69_959" x1="38.88" y1="-3.12007" x2="7.91998" y2="81.3599" gradientUnits="userSpaceOnUse">
<stop stop-color="white"/>
<stop offset="0.49" stop-color="#ABABAB"/>
<stop offset="1" stop-color="white"/>
</linearGradient>
<linearGradient id="paint1_linear_69_959" x1="30.403" y1="11.9904" x2="30.403" y2="38.95" gradientUnits="userSpaceOnUse">
<stop stop-color="#D9D9D9" stop-opacity="0"/>
<stop offset="1" stop-color="#1DFF09"/>
</linearGradient>
<clipPath id="clip0_69_959">
<rect width="48" height="48" rx="14.4" fill="white"/>
</clipPath>
</defs>
</svg>
