<svg width="2000" height="800" viewBox="0 0 2000 800" fill="none" xmlns="http://www.w3.org/2000/svg">
<g clip-path="url(#clip0_161_896)">
<path fill-rule="evenodd" clip-rule="evenodd" d="M2000 700.734C2000 717.315 2000 725.606 1995.06 731.259C1990.12 736.913 1981.95 738.015 1965.63 740.219C1684.9 778.119 1353.8 800 999.219 800C645.306 800 314.772 778.201 34.3841 740.432C18.0527 738.232 9.88693 737.132 4.94346 731.478C0 725.824 0 717.531 0 700.945V99.0554C0 82.4696 0 74.1766 4.94345 68.5226C9.8869 62.8686 18.0526 61.7687 34.384 59.5687C314.772 21.7992 645.306 0 999.219 0C1353.8 0 1684.9 21.8811 1965.63 59.7813C1981.95 61.9854 1990.12 63.0875 1995.06 68.7409C2000 74.3944 2000 82.685 2000 99.2662V700.734Z" fill="#CBF75E"/>
</g>
<defs>
<clipPath id="clip0_161_896">
<rect width="2000" height="800" fill="white"/>
</clipPath>
</defs>
</svg>
