<svg width="95" height="24" viewBox="0 0 95 24" fill="none" xmlns="http://www.w3.org/2000/svg">
<g clip-path="url(#clip0_113_427)">
<rect y="0.5" width="23" height="23" rx="6.9" fill="#CAF906"/>
<path fill-rule="evenodd" clip-rule="evenodd" d="M27.2635 -20.5269L-21.5269 28.2635L-19.2906 30.4997L29.4997 -18.2906L27.2635 -20.5269ZM31.9392 -15.8511L-16.8511 32.9393L-14.6149 35.1755L34.1754 -13.6149L31.9392 -15.8511ZM-12.1754 37.615L36.615 -11.1753L38.8512 -8.9391L-9.93917 39.8513L-12.1754 37.615ZM41.2907 -6.49961L-7.49965 42.2908L-5.26343 44.527L43.5269 -4.26338L41.2907 -6.49961Z" fill="url(#paint0_linear_113_427)"/>
<rect x="-2.33154" y="6.24536" width="33.7992" height="12.9182" transform="rotate(26.2744 -2.33154 6.24536)" fill="url(#paint1_linear_113_427)" fill-opacity="0.5"/>
</g>
<path d="M53.5518 7.85999C53.5518 7.01316 54.2383 6.32666 55.0851 6.32666H57.8451V23.5H53.5518V7.85999Z" fill="#FDFDFF"/>
<path fill-rule="evenodd" clip-rule="evenodd" d="M73.4851 0.5C72.6382 0.5 71.9517 1.1865 71.9517 2.03333V7.4308C70.7288 6.72782 69.3163 6.32667 67.8118 6.32667C63.1541 6.32667 59.3784 10.171 59.3784 14.9133C59.3784 19.6556 63.1541 23.5 67.8118 23.5C69.3163 23.5 70.7288 23.0988 71.9517 22.3959V23.5H76.2451V14.9133V0.5H73.4851ZM71.9517 14.9133C71.9517 12.4689 70.0256 10.62 67.8118 10.62C65.5979 10.62 63.6718 12.4689 63.6718 14.9133C63.6718 17.3577 65.5979 19.2067 67.8118 19.2067C70.0256 19.2067 71.9517 17.3577 71.9517 14.9133Z" fill="#FDFDFF"/>
<path fill-rule="evenodd" clip-rule="evenodd" d="M90.3517 14.9133C90.3517 17.3577 88.4255 19.2067 86.2117 19.2067C83.9978 19.2067 82.0717 17.3577 82.0717 14.9133C82.0717 12.4689 83.9978 10.62 86.2117 10.62C88.4255 10.62 90.3517 12.4689 90.3517 14.9133ZM90.3575 22.3925C89.1332 23.0976 87.7186 23.5 86.2117 23.5C81.5541 23.5 77.7783 19.6556 77.7783 14.9133C77.7783 10.171 81.5541 6.32666 86.2117 6.32666C87.7162 6.32666 89.1288 6.72783 90.3517 7.43084V6.94C90.3517 6.60126 90.6263 6.32667 90.9651 6.32667H94.6451V23.5H91.5784C90.9411 23.5 90.4174 23.0141 90.3575 22.3925Z" fill="#FDFDFF"/>
<path d="M53.5518 4.79333C53.5518 2.42219 54.3846 0.5 56.9251 0.5H58.7651C58.7651 2.87114 57.9323 4.79333 55.3918 4.79333H53.5518Z" fill="#FDFDFF"/>
<path fill-rule="evenodd" clip-rule="evenodd" d="M52.0184 0.5H47.7251H47.1117H46.4984C44.2758 0.5 42.2771 1.85317 41.4517 3.91679L36.8077 15.5267H31.4717C29.4393 15.5267 27.7917 17.1743 27.7917 19.2067H35.3357L33.6184 23.5H37.9117L39.6291 19.2067H47.7251V23.5H52.0184V0.5ZM47.7251 4.79333C46.3174 4.79333 45.0516 5.65034 44.5288 6.9573L41.1011 15.5267H47.7251V4.79333Z" fill="#FDFDFF"/>
<defs>
<linearGradient id="paint0_linear_113_427" x1="18.1301" y1="-0.994944" x2="3.29505" y2="39.4851" gradientUnits="userSpaceOnUse">
<stop stop-color="white"/>
<stop offset="0.49" stop-color="#ABABAB"/>
<stop offset="1" stop-color="white"/>
</linearGradient>
<linearGradient id="paint1_linear_113_427" x1="14.5681" y1="6.24536" x2="14.5681" y2="19.1635" gradientUnits="userSpaceOnUse">
<stop stop-color="#D9D9D9" stop-opacity="0"/>
<stop offset="1" stop-color="#1DFF09"/>
</linearGradient>
<clipPath id="clip0_113_427">
<rect y="0.5" width="23" height="23" rx="6.9" fill="white"/>
</clipPath>
</defs>
</svg>
